<svg xmlns="http://www.w3.org/2000/svg" viewBox="0 0 80 80" width="80" height="80">
  <defs>
    <linearGradient id="aiBg" x1="0%" y1="0%" x2="100%" y2="100%">
      <stop offset="0%" stop-color="#1a73e8"/>
      <stop offset="100%" stop-color="#0052cc"/>
    </linearGradient>
  </defs>
  <rect width="80" height="80" rx="20" fill="url(#aiBg)"/>
  <!-- AI Sparkle Face / Mascot -->
  <path d="M40 18 C41.5 28 48 34.5 58 36 C48 37.5 41.5 44 40 54 C38.5 44 32 37.5 22 36 C32 34.5 38.5 28 40 18 Z" fill="#ffffff"/>
  <path d="M58 50 C59 55 62 58 67 59 C62 60 59 63 58 68 C57 63 54 60 49 59 C54 58 57 55 58 50 Z" fill="#ffd700"/>
</svg>
